<?xml version="1.0" encoding="UTF-8"?>
<svg version="1.1" xmlns="http://www.w3.org/2000/svg" width="550" height="188">
<path d="M0 0 C181.5 0 363 0 550 0 C550 62.04 550 124.08 550 188 C368.5 188 187 188 0 188 C0 125.96 0 63.92 0 0 Z " fill="#FBFBFB" transform="translate(0,0)"/>
<path d="M0 0 C25 0 25 0 35 3 C39.96181306 7.96181306 42.14482621 10.70335576 42.25 17.75 C42.19205072 22.5945594 41.99183035 26.01089286 39 30 C34.36932617 33.9845333 30.83527097 34.39303567 25 35 C25.42821045 35.71019287 25.8564209 36.42038574 26.29760742 37.15209961 C27.91098195 39.82958234 29.52295456 42.50790286 31.1340332 45.18676758 C32.1644744 46.89923429 33.19647732 48.61076096 34.22851562 50.32226562 C37.93505116 56.48777107 41.56882348 62.6766127 45 69 C42.36 69 39.72 69 37 69 C36.45472656 68.01902344 35.90945313 67.03804688 35.34765625 66.02734375 C30.95636282 58.15973241 26.48991603 50.35960407 21.74438477 42.69897461 C19 38.21335041 19 38.21335041 19 36 C14.71 36 10.42 36 6 36 C6 46.89 6 57.78 6 69 C4.02 69 2.04 69 0 69 C0 46.23 0 23.46 0 0 Z " fill="#A8A8A8" transform="translate(332,67)"/>
<path d="M0 0 C5.88162729 3.41134383 10.24164957 8.20499123 12.125 14.8125 C12.125 17.7825 12.125 20.7525 12.125 23.8125 C-0.085 23.8125 -12.295 23.8125 -24.875 23.8125 C-22.57929384 33.03936341 -22.57929384 33.03936341 -15.875 38.8125 C-8.16015869 39.70908967 -2.17267588 39.46730391 4.125 34.8125 C5.115 34.1525 6.105 33.4925 7.125 32.8125 C8.115 33.4725 9.105 34.1325 10.125 34.8125 C9.46239522 37.4629191 8.81074046 39.30294474 6.57421875 40.96484375 C4.7827669 41.98140636 2.97955582 42.91652261 1.125 43.8125 C0.50753906 44.17085937 -0.10992187 44.52921875 -0.74609375 44.8984375 C-5.8737994 47.10005791 -12.28987338 46.71419836 -17.484375 44.90234375 C-23.26497905 41.88595473 -27.49126262 38.24240223 -29.9765625 32.08203125 C-31.77829478 25.52529247 -32.25305495 17.71600328 -29.96484375 11.234375 C-23.65425172 0.60173762 -11.9295836 -4.60440069 0 0 Z " fill="#AAAAAA" transform="translate(416.875,91.1875)"/>
<path d="M0 0 C13.86 0 27.72 0 42 0 C42 1.98 42 3.96 42 6 C30.45 6 18.9 6 7 6 C7 13.92 7 21.84 7 30 C17.89 30 28.78 30 40 30 C40 31.98 40 33.96 40 36 C28.78 36 17.56 36 6 36 C6 44.91 6 53.82 6 63 C18.54 63 31.08 63 44 63 C44 64.98 44 66.96 44 69 C29.48 69 14.96 69 0 69 C0 46.23 0 23.46 0 0 Z " fill="#AAAAAA" transform="translate(170,67)"/>
<path d="M0 0 C5.23530864 3.34426299 8.27588264 8.60062814 10.1953125 14.40234375 C10.91811027 21.20790718 11.01860972 28.48897738 7.1953125 34.40234375 C2.38575808 39.77517932 -3.0886737 43.83585561 -10.40625 44.71484375 C-18.39218908 45.06684106 -23.54814455 43.21481266 -29.5546875 38.02734375 C-35.49104287 31.10159582 -37.20540159 26.18297982 -37.07421875 17.21484375 C-36.36532511 9.81769277 -32.37862353 5.52916779 -26.90234375 0.84765625 C-18.90356762 -4.66360477 -8.58083435 -3.87655057 0 0 Z M-27.0546875 8.90234375 C-30.91461546 14.41652654 -31.61716372 18.7219837 -30.8046875 25.40234375 C-29.11191212 30.76432413 -26.54895032 34.28111821 -21.8046875 37.40234375 C-17.0639641 39.77270545 -10.9185869 39.09053809 -5.8046875 38.40234375 C-0.59897086 35.66046036 2.44877187 32.00445521 4.1953125 26.40234375 C5.03225168 20.11725242 5.36888933 14.14733151 1.6328125 8.77734375 C-2.05938434 4.69785354 -5.75121003 2.78584887 -11.26171875 2.09375 C-18.38873109 1.74113919 -22.22409103 3.53501433 -27.0546875 8.90234375 Z " fill="#AAAAAA" transform="translate(306.8046875,92.59765625)"/>
<path d="M0 0 C5.79416633 3.4919767 9.74319499 7.74516326 12.71484375 13.84765625 C13.37109375 16.625 13.37109375 16.625 13.71484375 18.84765625 C5.59352778 22.29306302 -2.49614558 23.28435945 -11.03515625 20.72265625 C-19.07355478 16.08511864 -24.35721468 11.49210342 -28.28515625 2.84765625 C-28.28515625 1.85765625 -28.28515625 0.86765625 -28.28515625 -0.15234375 C-18.95713423 -4.29813131 -9.25135863 -4.66521503 0 0 Z " fill="#A7A7A7" transform="translate(47.28515625,75.15234375)"/>
<path d="M0 0 C-1.11194411 7.27237013 -5.22649201 12.90424852 -10.9375 17.4375 C-18.36197926 22.4755395 -26.24828073 22.75767708 -35 22 C-37.6431559 21.25405225 -39.5880675 20.34619488 -42 19 C-39.47666113 10.16831395 -33.95967089 3.33204864 -25.91796875 -1.1640625 C-17.4202345 -4.8677593 -8.27193593 -3.28530789 0 0 Z " fill="#A7A7A7" transform="translate(143,75)"/>
<path d="M0 0 C3.81228649 6.67150136 3.97837773 13.46406575 3 21 C0.42904445 29.0236415 -3.87658789 35.40652989 -11 40 C-14.5 41.4375 -14.5 41.4375 -17 42 C-21.34526567 35.07473284 -21.96480863 29.09643532 -21 21 C-18.90806041 12.90456512 -13.39839835 5.80717448 -6.25 1.5 C-3 0 -3 0 0 0 Z " fill="#A7A7A7" transform="translate(73,122)"/>
<path d="M0 0 C7.35041037 0.6643228 11.10509486 4.81123264 16 10 C21.21955436 16.8958081 21.68373875 24.6242003 21 33 C20.23083824 36.10795015 19.22606542 39.04430657 18 42 C9.59623683 39.74533183 4.72909629 35.5101633 0.22265625 28.1796875 C-3.6693614 21.24120237 -4.3682132 13.17232042 -2.32421875 5.4453125 C-1.63054525 3.5977082 -0.8270243 1.79188598 0 0 Z " fill="#A7A7A7" transform="translate(89,122)"/>
<path d="M0 0 C10.38885161 3.40324449 14.99729756 8.38568586 20 18 C21.14330513 21.42991538 21.20381651 24.1986416 21.25 27.8125 C21.27578125 29.01519531 21.3015625 30.21789062 21.328125 31.45703125 C20.9731533 35.28988045 19.92202587 37.69715027 18 41 C12.57267766 40.66079235 8.83352703 37.59346271 5 34 C-1.54551061 26.07345858 -3.83245874 18.20170031 -3 8 C-1.80044843 1.80044843 -1.80044843 1.80044843 0 0 Z " fill="#A7A7A7" transform="translate(55,40)"/>
<path d="M0 0 C2.86820088 7.65624589 3.46078668 15.51886791 0.90234375 23.3671875 C-3.03991642 31.79836791 -8.19841565 37.59938786 -17 41 C-17.99 40.67 -18.98 40.34 -20 40 C-22.9582058 32.83802806 -23.34943851 24.54860472 -20.4375 17.3125 C-16.63499913 9.85426145 -9.13858638 0 0 0 Z " fill="#A7A7A7" transform="translate(108,40)"/>
<path d="M0 0 C3.34125 -0.0825 6.6825 -0.165 10.125 -0.25 C11.16672363 -0.28641602 12.20844727 -0.32283203 13.28173828 -0.36035156 C20.44280239 -0.4457499 23.70583493 0.81564043 28.875 5.8125 C30.53043273 9.03139698 30.37553027 11.43246244 30 15 C28.48934941 18.16517266 26.75050328 20.79959738 24 23 C21.0282863 23.94448253 18.3412377 24.11757204 15.234375 24.09765625 C14.03119629 24.09390991 14.03119629 24.09390991 12.80371094 24.09008789 C11.79598633 24.08098389 10.78826172 24.07187988 9.75 24.0625 C6.5325 24.041875 3.315 24.02125 0 24 C0 16.08 0 8.16 0 0 Z " fill="#FAFAFA" transform="translate(338,73)"/>
<path d="M0 0 C4.34421601 2.72578259 6.43607049 5.13895775 8.1875 10 C8.79934207 16.01464269 8.65985489 21.96412046 8.5 28 C8.47488662 29.6497058 8.45207881 31.2994484 8.43164062 32.94921875 C8.37688229 36.96706316 8.29078207 40.98312198 8.1875 45 C6.2075 45 4.2275 45 2.1875 45 C2.16768066 43.99098633 2.14786133 42.98197266 2.12744141 41.94238281 C2.05126664 38.19245804 1.96256784 34.44291529 1.87011719 30.69335938 C1.83187642 29.07169141 1.79701497 27.44994004 1.765625 25.828125 C1.71986743 23.49448883 1.66189184 21.16142438 1.6015625 18.828125 C1.59001129 18.10506165 1.57846008 17.38199829 1.56655884 16.63702393 C1.4593432 12.9656083 1.27755313 10.0871688 -0.8125 7 C-3.79581956 4.7051388 -7.01719817 4.57700592 -10.71875 4.6875 C-14.53201143 5.2566435 -16.70344651 6.68345034 -19.8125 9 C-22.56518629 13.46056912 -23.21307977 16.94713318 -23.32421875 22.1484375 C-23.35114555 23.13452499 -23.35114555 23.13452499 -23.37861633 24.14053345 C-23.43234437 26.21862572 -23.46649125 28.29649347 -23.5 30.375 C-23.53320653 31.79299976 -23.56769924 33.21097001 -23.60351562 34.62890625 C-23.68804651 38.0857218 -23.75503568 41.54261638 -23.8125 45 C-25.7925 45 -27.7725 45 -29.8125 45 C-29.8125 30.15 -29.8125 15.3 -29.8125 0 C-28.1625 0 -26.5125 0 -24.8125 0 C-24.4825 2.31 -24.1525 4.62 -23.8125 7 C-23.27625 6.236875 -22.74 5.47375 -22.1875 4.6875 C-16.06019258 -2.24603208 -8.44640035 -2.21544927 0 0 Z " fill="#AAAAAA" transform="translate(471.8125,91)"/>
<path d="M0 0 C6.80900278 3.75797421 10.95119086 9.16321507 14.14453125 16.18359375 C13.14453125 18.18359375 13.14453125 18.18359375 11.03125 19.28125 C3.57990684 21.61042493 -5.42139744 21.37170981 -12.48046875 17.99609375 C-16.15464974 15.83659995 -19.08091952 13.44776931 -21.85546875 10.18359375 C-22.59796875 9.35859375 -23.34046875 8.53359375 -24.10546875 7.68359375 C-25.92371116 5.08610459 -26.49891011 3.30348185 -26.85546875 0.18359375 C-18.92637498 -5.25349912 -8.35182409 -3.8993169 0 0 Z " fill="#A7A7A7" transform="translate(128.85546875,109.81640625)"/>
<path d="M0 0 C-0.33812963 5.41007415 -3.41626931 9.1763219 -7 13 C-13.40094851 18.06476642 -19.8770296 20.2857792 -28.0625 20.3125 C-29.84333984 20.33763672 -29.84333984 20.33763672 -31.66015625 20.36328125 C-35.22743927 19.97526099 -37.1119605 19.06912471 -40 17 C-39.25078446 10.35219858 -34.72295071 6.38930427 -30 2 C-20.20571717 -4.47332979 -10.57268896 -4.29036653 0 0 Z " fill="#A7A7A7" transform="translate(60,110)"/>
<path d="M0 0 C2.40369727 1.20184863 4.71612732 2.46021162 7 3.875 C7 5.195 7 6.515 7 7.875 C5.02 8.865 5.02 8.865 3 9.875 C2.21625 9.235625 1.4325 8.59625 0.625 7.9375 C-3.27377564 4.87417628 -5.68549586 4.47245721 -10.546875 4.52734375 C-15.69044809 5.25628962 -19.57144004 8.02704629 -22.703125 12.078125 C-24.37183929 15.67691846 -24.39856719 18.4821406 -24.375 22.4375 C-24.38273438 23.73816406 -24.39046875 25.03882813 -24.3984375 26.37890625 C-23.98489998 30.00749526 -23.36183018 31.21950311 -21 33.875 C-21 34.535 -21 35.195 -21 35.875 C-20.38125 36.184375 -19.7625 36.49375 -19.125 36.8125 C-17.75 37.5 -16.375 38.1875 -15 38.875 C-13.06640414 39.02351844 -11.12657903 39.09630833 -9.1875 39.125 C-8.14980469 39.15078125 -7.11210937 39.1765625 -6.04296875 39.203125 C-2.60380151 38.8322777 -0.84055063 37.78477597 2 35.875 C2.99 35.545 3.98 35.215 5 34.875 C5.99 35.535 6.98 36.195 8 36.875 C6.49692398 41.55123652 3.1346469 42.73384357 -1 44.875 C-4.99659038 46.87329519 -9.65568109 46.37494146 -14 45.875 C-20.29880296 43.69389276 -25.50600365 39.56849569 -29 33.875 C-31.72748336 27.09846918 -32.30419262 19.51377601 -30.3125 12.4296875 C-27.64330814 6.57970866 -23.58728014 3.66145534 -18.375 0.0625 C-12.28373211 -2.08072389 -6.08743671 -2.28278877 0 0 Z " fill="#AAAAAA" transform="translate(255,91.125)"/>
<path d="M0 0 C1.98 0 3.96 0 6 0 C6 4.29 6 8.58 6 13 C10.29 13 14.58 13 19 13 C19 14.65 19 16.3 19 18 C14.71 18 10.42 18 6 18 C6.11813019 22.52085371 6.24236976 27.04148214 6.37231445 31.56201172 C6.41566926 33.10037653 6.45734395 34.63878963 6.49731445 36.17724609 C6.55500398 38.3865414 6.61870179 40.59559348 6.68359375 42.8046875 C6.70030624 43.49432587 6.71701874 44.18396423 6.73423767 44.89450073 C6.80806995 48.57114264 6.80806995 48.57114264 8 52 C11.63 52 15.26 52 19 52 C19 53.65 19 55.3 19 57 C14.97387033 59.68408645 11.73183082 59.80610406 7 59 C3.42660117 57.07643127 1.30392487 54.9117746 0 51 C-0.0846817 48.48631945 -0.11601885 46.00130626 -0.09765625 43.48828125 C-0.0962413 42.76005661 -0.09482635 42.03183197 -0.09336853 41.28153992 C-0.08777659 38.95848461 -0.07522562 36.63552612 -0.0625 34.3125 C-0.05748396 32.73632952 -0.05292123 31.16015752 -0.04882812 29.58398438 C-0.0378098 25.72261902 -0.02055074 21.86132592 0 18 C-3.3 18 -6.6 18 -10 18 C-10 16.35 -10 14.7 -10 13 C-6.7 13 -3.4 13 0 13 C0 8.71 0 4.42 0 0 Z " fill="#A9A9A9" transform="translate(499,78)"/>
<path d="M0 0 C3.78041561 2.10601893 5.82353092 4.44179229 7.75 8.375 C7.75 10.025 7.75 11.675 7.75 13.375 C-2.81 13.375 -13.37 13.375 -24.25 13.375 C-23.19419286 8.09596428 -21.94835818 4.60080307 -17.7109375 1.10546875 C-11.88593881 -2.65817195 -6.24760937 -2.75868465 0 0 Z " fill="#F6F6F6" transform="translate(415.25,96.625)"/>
</svg>
